/* XPM */
static char *result[] = {
/* columns rows colors chars-per-pixel */
"32 32 215 2 ",
"   c #3C0D0D",
".  c #3D1311",
"X  c #430E0E",
"o  c #42100F",
"O  c #411312",
"+  c #4D1514",
"@  c #431816",
"#  c #491E1B",
"$  c #531D1A",
"%  c #551918",
"&  c #4C221E",
"*  c #53211D",
"=  c #4C2521",
"-  c #4F2B26",
";  c #5E2521",
":  c #542B25",
">  c #5B2B25",
",  c #542D29",
"<  c #552924",
"1  c #5B332B",
"2  c #5F3728",
"3  c #5E3B33",
"4  c #602F29",
"5  c #652A24",
"6  c #63332C",
"7  c #6B342D",
"8  c #6E3A2E",
"9  c #71362E",
"0  c #643B33",
"q  c #6A3C33",
"w  c #6A3630",
"e  c #733E36",
"r  c #733F38",
"t  c #7B4B18",
"y  c #6D433C",
"u  c #694239",
"i  c #74443A",
"p  c #7C453B",
"a  c #77493F",
"s  c #7C493D",
"d  c #784234",
"f  c #7E5238",
"g  c #694126",
"h  c #6B4A43",
"j  c #6E4E4A",
"k  c #744741",
"l  c #734C44",
"z  c #7A4B42",
"x  c #6E524C",
"c  c #7B5344",
"v  c #75534C",
"b  c #7A534C",
"n  c #7B594D",
"m  c #7B5A53",
"M  c #7E5F5C",
"N  c #795751",
"B  c #7E6262",
"V  c #873C31",
"C  c #845524",
"Z  c #884C3F",
"A  c #86483B",
"S  c #924B3A",
"D  c #904337",
"F  c #9B5539",
"G  c #834825",
"H  c #A8532C",
"J  c #B15D37",
"K  c #93622A",
"L  c #A87D2F",
"P  c #B36035",
"I  c #A67331",
"U  c #844D42",
"Y  c #835146",
"T  c #8B5345",
"R  c #83544C",
"E  c #8B564A",
"W  c #825A4F",
"Q  c #8B594E",
"!  c #96594B",
"~  c #835B53",
"^  c #825F5A",
"/  c #8A5A53",
"(  c #945E51",
")  c #9C5D51",
"_  c #A55D46",
"`  c #A75849",
"'  c #B15A45",
"]  c #966248",
"[  c #85645C",
"{  c #8C645B",
"}  c #8E6057",
"|  c #9B6253",
" . c #94655B",
".. c #9B6D5C",
"X. c #956857",
"o. c #9C745B",
"O. c #A6644B",
"+. c #B56848",
"@. c #A16659",
"#. c #AA6C5D",
"$. c #A36857",
"%. c #B86A52",
"&. c #B87659",
"*. c #A2765B",
"=. c #856962",
"-. c #8C6C63",
";. c #836C68",
":. c #926E64",
">. c #986A62",
",. c #9D7165",
"<. c #95746C",
"1. c #977369",
"2. c #9F7F75",
"3. c #A26D61",
"4. c #A37264",
"5. c #AB7C6C",
"6. c #A67569",
"7. c #B47465",
"8. c #B47E6D",
"9. c #BA7F6C",
"0. c #B97968",
"q. c #CF7E50",
"w. c #D37557",
"e. c #E47D56",
"r. c #E17E5C",
"t. c #C77E6C",
"y. c #D67E64",
"u. c #A98019",
"i. c #AD8535",
"p. c #CBA810",
"a. c #C69B2A",
"s. c #CFA135",
"d. c #E7BF29",
"f. c #E3C217",
"g. c #F7D825",
"h. c #AF8254",
"j. c #BC8557",
"k. c #AA846A",
"l. c #B5826E",
"z. c #B28868",
"x. c #A3847B",
"c. c #A78577",
"v. c #B58573",
"b. c #B98772",
"n. c #BB8C73",
"m. c #B68D7B",
"M. c #BF8F7B",
"N. c #B18971",
"B. c #AE907D",
"V. c #BB927B",
"C. c #B2937E",
"Z. c #CB8F5B",
"A. c #D28F55",
"S. c #EE8B5B",
"D. c #E38258",
"F. c #F9965F",
"G. c #FEB34F",
"H. c #FEAB50",
"J. c #FBB55E",
"K. c #C99568",
"L. c #C58C78",
"P. c #C4947D",
"I. c #C09A77",
"U. c #E58C60",
"Y. c #E89669",
"T. c #F69D67",
"R. c #FEB86C",
"E. c #FEB872",
"W. c #EDAE6C",
"Q. c #FEC857",
"!. c #FEC374",
"~. c #FDD975",
"^. c #B78E81",
"/. c #AF948A",
"(. c #B39481",
"). c #B59B84",
"_. c #BC9C84",
"`. c #BA9787",
"'. c #BBA28C",
"]. c #BFA084",
"[. c #B8A592",
"{. c #C49984",
"}. c #CA9985",
"|. c #C59F8B",
" X c #CA9E89",
".X c #CD9581",
"XX c #D99B83",
"oX c #C2A38B",
"OX c #CBA48D",
"+X c #C4A98E",
"@X c #C5A385",
"#X c #D3A88D",
"$X c #C6A993",
"%X c #C0A692",
"&X c #D3AD94",
"*X c #D2AA97",
"=X c #D5B399",
"-X c #E6B69D",
";X c #F5BE9D",
":X c #E9B08A",
">X c #DAAFA1",
",X c #D9BBA6",
"<X c #E7BEB1",
"1X c #E5C09A",
"2X c #EDC8A8",
"3X c #F2C2A3",
"4X c #EACEB6",
"5X c #EDD4BA",
"6X c #F4D8B5",
"7X c #EDD5C2",
"8X c #FADDC7",
"9X c #F9E7C8",
"0X c #FCF4D8",
"qX c #FCEBD2",
"wX c None",
/* pixels */
"wXwXwXwXwXwXwXwXwXwXwXwXwXwXwXwXwXwXwXwXwXwXwXwXwXwXwXwXwXwXwXwX",
"wXwXwXwXwXwXwXwXz.z.$.wXwXwXwXwXwXwXwXwXwXwXwXwXwXwXwXwXwXwXwXwX",
"wXwXwXwXwXwXwXwXF H F i wXwXwXwXwXwXwXwXwXwXwXwXwXwXwXwXwXwXwXwX",
"wXwXwXwXwXwXwX,.F P H 8 wXwXwXwXwXwXwXwXwXwXwXwXwXwXwXwXwXwXwXwX",
"wXwXwXwXwXwXwXX.` +.J D = wXwXwXwXwXwXwXwXwXwXwXwXwXwXwXwXwXwXwX",
"wXwXwXwXwXwXwX/ D +._ D # wXwXwXwXwXwXwXwXwXwXwXwXwXwXwXwXm wXwX",
"wXwXwXwXwXwXwX..+.@.( 9 > = wXwXwXwXwXwXwXwXwXwXwXwXwXB u - wXwX",
"wXwXwXwXwXwXwXb &.8.4.4 > O wXwXwXwXwXwXwXwXwXwXwXwXx & - 3 wXwX",
"wXwXwXwXwXwXwXy 4.7.7.z $     ^ wXwXwXwXwXwXwXwXwXm - & 1 3 wXwX",
"wXwXwXwXwXwXwXq | b.} a 4 # X y x./.wXwXwXwXwXwXm 1 . 3 3 wXwXwX",
"wXwXwXwXwXwXwXT $.L.4.i + X X + ~ :.`.(.(.<.W l , . & 1 h wXwXwX",
"wXwXwXwXwXwXwX3.#.7.T 7 % ; > + > w { n.1. .u 1 . @ u u wXwXwXwX",
"wXwXwXwXwXwXwX@.E 0.#.p % ; A ` Z.j.K.:XV.W f : 1 i j v wXwXwXwX",
"wXwXwXwXwXwXwX6 e 7.) z 4 ' r.U.R.!.J.~.W.i y a 6 q b -.wXwXwXwX",
"wXwXwXwXwXwXwX1 6 q z e 7 w.e.T.R.!.G.~.Q.d w W R l n m wXwXwXwX",
"wXwXwXwXwXwX[ W ( ( z 7 U %.S.R.!.D.D.J.G.5 > z 6.W l wXwXwXwXwX",
"wXwXwXwXwX-.-.}  .E r 7 U T y.y.O.V ` S.q.X $ 7 { { { M wXwXwXwX",
"wXwXwXwXwXm { W U i ! U 7 5 G C 5 + % ! A   X $ r z y y h wXwXwX",
"wXwXwXwXx y q b / T U 7 r 7 d.@X .C 5 | 9 X + $ ^ 2 o & u ;.wXwX",
"wXwXwXwX- 0 1 3 s T A U L.t.s.I K f.d 0.5 X ; G s i.g * y =.wXwX",
"wXwXwXwX# . = : s ` w.&.! ) ! a.g.A.A U w + r L u.p.] u - 3 wXwX",
"wXwXwXwX.   & , k E Y.Y.V 9 7.@.) ] T p a r E z i.h.5.n 3 3 wXwX",
"wXwXwXwX# . O # q O.W.T.U 9 U E Y >.3.p U >.6.k s I.K.X.3 wXwXwX",
"wXwXwXwX= . @ * w %.S.T.T 5 9 6.2X>X( p e 3.x.:.,.u z.o.y wXwXwX",
"wXwXwXB h @ O & U | e.D.w.' t.-X8XqX7X^. .~ <.2.1.< c l n wXwXwX",
"wXwXwXB [ v q 6 < 4 E l.XX:X;X9X9X0X0X7X,Xr X ~ [ 3 0 1 n wXwXwX",
"wXwXwXwX^ -.:.{ a r Y s 7.-X;X6X9X0XqX9X4X`.i ..y l n k.C.wXwXwX",
"wXwXwXwXv :.m.V.b.P.b.v.5.XX2X4X6X5X7X4X-X=XOXN... .N.].).wXwXwX",
"wXwXwX-.[ :.m.N.l.#X#X=X}..Xm.=X-X&X&X}.M.`.}.m.C.[.C.].[.wXwXwX",
"wXwXwX<.<.c.'.n.N.OX=X=XM.P.5.8.9.}.L.8.M.oX$.5._.).(.].[.wXwXwX",
"wXwXx.:...c._._.$X$X&X&XOX*XP.v.b.P.OXOX=XoXN.].).B.C.).'.wXwXwX",
"wXwXwX[ *.I.oX_.$X'.'.=X&X&XOXOXV.{.V.|.@X_.oX+X+X`.(.).'.).wXwX"
};
